<?xml version="1.0" encoding="UTF-8" standalone="no"?>
<!-- Created with Inkscape (http://www.inkscape.org/) -->

<svg
   width="56mm"
   height="56mm"
   viewBox="0 0 56 56"
   version="1.1"
   id="svg5"
   xml:space="preserve"
   inkscape:version="1.2.2 (b0a8486541, 2022-12-01)"
   sodipodi:docname="icon-min-graphic.svg"
   xmlns:inkscape="http://www.inkscape.org/namespaces/inkscape"
   xmlns:sodipodi="http://sodipodi.sourceforge.net/DTD/sodipodi-0.dtd"
   xmlns="http://www.w3.org/2000/svg"
   xmlns:svg="http://www.w3.org/2000/svg"><sodipodi:namedview
     id="namedview7"
     pagecolor="#ffffff"
     bordercolor="#000000"
     borderopacity="0.25"
     inkscape:showpageshadow="2"
     inkscape:pageopacity="0.0"
     inkscape:pagecheckerboard="0"
     inkscape:deskcolor="#d1d1d1"
     inkscape:document-units="mm"
     showgrid="false"
     inkscape:zoom="0.52274463"
     inkscape:cx="-316.59818"
     inkscape:cy="496.4183"
     inkscape:window-width="1280"
     inkscape:window-height="992"
     inkscape:window-x="1680"
     inkscape:window-y="0"
     inkscape:window-maximized="0"
     inkscape:current-layer="layer1"
     showguides="false" /><defs
     id="defs2" /><g
     inkscape:label="Camada 1"
     inkscape:groupmode="layer"
     id="layer1"><g
       id="g2315"
       transform="translate(-108.07371,-33.077252)"><path
         id="path1478"
         style="fill:none;stroke:#000000;stroke-width:2.28146;stroke-linecap:round;stroke-linejoin:round;stroke-dasharray:none;stroke-opacity:1"
         d="m 134.23489,41.98462 c -10.54477,-1.26e-4 -19.09305,8.54815 -19.09292,19.092915 2e-4,10.544546 8.54838,19.092468 19.09292,19.09235 9.28087,0 -1.15775,-6.291284 5.66734,-10.231745 1.50749,-0.870358 3.3309,-0.771157 5.14151,-0.588907 l -3.63655,-3.636554 c 1.27386,-0.688765 2.44615,-1.861041 3.1349,-3.134894 l 6.31165,6.311641 c 1.49135,-0.960125 2.47349,-3.140078 2.47349,-7.811891 -0.34715,-10.538814 -8.5478,-19.092712 -19.09234,-19.092915 z" /><circle
         style="fill:#000000;fill-opacity:1;stroke:none;stroke-width:0.434431;stroke-linecap:round;stroke-linejoin:round;stroke-dasharray:none;stroke-opacity:1"
         id="path1485"
         cx="-36.242062"
         cy="143.1778"
         r="3.1903467"
         inkscape:transform-center-x="5.6662921"
         inkscape:transform-center-y="10.827889"
         transform="rotate(-75)" /><circle
         style="fill:#000000;fill-opacity:1;stroke:none;stroke-width:0.434431;stroke-linecap:round;stroke-linejoin:round;stroke-dasharray:none;stroke-opacity:1"
         id="circle1487"
         cx="-29.836775"
         cy="134.50005"
         r="3.1903467"
         inkscape:transform-center-x="12.390546"
         inkscape:transform-center-y="2.3948933"
         transform="rotate(-75)" /><circle
         style="fill:#000000;fill-opacity:1;stroke:none;stroke-width:0.434431;stroke-linecap:round;stroke-linejoin:round;stroke-dasharray:none;stroke-opacity:1"
         id="circle1489"
         cx="-19.092579"
         cy="134.5856"
         r="3.1903467"
         inkscape:transform-center-x="9.5270994"
         inkscape:transform-center-y="-7.9610556"
         transform="rotate(-75)" /><circle
         style="fill:#000000;fill-opacity:1;stroke:none;stroke-width:0.434431;stroke-linecap:round;stroke-linejoin:round;stroke-dasharray:none;stroke-opacity:1"
         id="circle1491"
         cx="-12.698233"
         cy="143.22339"
         r="3.1903467"
         inkscape:transform-center-x="-0.47133285"
         inkscape:transform-center-y="-11.901905"
         transform="rotate(-75)" /><path
         id="path1668"
         style="fill:none;fill-opacity:1;stroke:#000000;stroke-width:2.34876;stroke-linecap:round;stroke-linejoin:round;stroke-dasharray:none;stroke-opacity:1"
         d="m 141.40739,65.712628 11.78843,11.788424 c 0.86827,0.868267 2.26583,0.868267 3.13411,-9e-6 0.86826,-0.868258 0.8689,-2.266467 6.4e-4,-3.134742 L 144.54214,62.577877 c -0.68876,1.273854 -1.86088,2.445995 -3.13475,3.134751 z" /><path
         id="path1688"
         style="fill:none;fill-opacity:1;stroke:#000000;stroke-width:2.34876;stroke-linecap:round;stroke-linejoin:round;stroke-dasharray:none;stroke-opacity:1"
         inkscape:transform-center-y="0.037263427"
         d="m 134.75662,55.927733 c 0,0 0.15491,9.549614 3.73399,10.348277 3.04346,0.679155 7.29417,-3.571502 6.61492,-6.614917 -0.79882,-3.579181 -10.34891,-3.73336 -10.34891,-3.73336 z"
         sodipodi:nodetypes="caac"
         inkscape:transform-center-x="-0.03699913" /></g></g></svg>
