<?xml version="1.0" encoding="UTF-8" standalone="no"?>
<!-- Created with Inkscape (http://www.inkscape.org/) -->

<svg
   width="56mm"
   height="56mm"
   viewBox="0 0 56 56"
   version="1.1"
   id="svg5"
   xml:space="preserve"
   inkscape:version="1.2.2 (b0a8486541, 2022-12-01)"
   sodipodi:docname="icon-min-utilities.svg"
   xmlns:inkscape="http://www.inkscape.org/namespaces/inkscape"
   xmlns:sodipodi="http://sodipodi.sourceforge.net/DTD/sodipodi-0.dtd"
   xmlns="http://www.w3.org/2000/svg"
   xmlns:svg="http://www.w3.org/2000/svg"><sodipodi:namedview
     id="namedview7"
     pagecolor="#ffffff"
     bordercolor="#000000"
     borderopacity="0.25"
     inkscape:showpageshadow="2"
     inkscape:pageopacity="0.0"
     inkscape:pagecheckerboard="0"
     inkscape:deskcolor="#d1d1d1"
     inkscape:document-units="mm"
     showgrid="false"
     inkscape:zoom="0.52274463"
     inkscape:cx="-316.59818"
     inkscape:cy="496.4183"
     inkscape:window-width="1280"
     inkscape:window-height="992"
     inkscape:window-x="1680"
     inkscape:window-y="0"
     inkscape:window-maximized="0"
     inkscape:current-layer="layer1"
     showguides="false" /><defs
     id="defs2" /><g
     inkscape:label="Camada 1"
     inkscape:groupmode="layer"
     id="layer1"><g
       id="g3315"
       transform="translate(-107.48722,-95.003001)"><path
         id="rect2629"
         style="fill:none;fill-opacity:1;stroke:#000000;stroke-width:1.9;stroke-linecap:round;stroke-linejoin:round;stroke-dasharray:none;stroke-opacity:1"
         d="m 120.18375,109.97546 c -1.1952,0 -2.15735,0.96214 -2.15735,2.15734 v 10.49675 H 152.948 V 112.1328 c 0,-1.1952 -0.96215,-2.15734 -2.15735,-2.15734 H 132.4329 c -0.40979,1.45896 -1.37943,2.6969 -2.69776,3.44422 v 9.19986 h -5.73035 v -9.23993 c -1.2832,-0.75192 -2.22479,-1.9722 -2.6267,-3.40415 z"
         sodipodi:nodetypes="ssccssccccccs" /><rect
         style="fill:none;fill-opacity:1;stroke:#000000;stroke-width:1.9;stroke-linecap:round;stroke-linejoin:round;stroke-dasharray:none;stroke-opacity:1"
         id="rect2627"
         width="41.404545"
         height="19.800871"
         x="114.78494"
         y="122.62963"
         rx="2.5579374"
         ry="2.5579374" /><rect
         style="fill:#000000;fill-opacity:1;stroke:none;stroke-width:1.77832;stroke-linecap:round;stroke-linejoin:round;stroke-dasharray:none;stroke-opacity:1"
         id="rect2631"
         width="7.7778392"
         height="3.2697971"
         x="131.59828"
         y="125.44719"
         rx="0"
         ry="1.8043162" /><path
         id="path2633"
         style="fill:none;fill-opacity:1;stroke:#000000;stroke-width:1.9;stroke-linecap:round;stroke-linejoin:round;stroke-dasharray:none;stroke-opacity:1"
         d="m 129.98936,103.57542 0.11829,4.69724 -3.2024,2.22079 -3.20288,-2.22079 0.1183,-4.69246 a 5.744833,5.744833 0 0 0 -2.66008,4.84223 5.744833,5.744833 0 0 0 2.84419,4.95718 v 9.23993 h 5.73036 v -9.19986 a 5.744833,5.744833 0 0 0 2.91477,-4.99725 5.744833,5.744833 0 0 0 -2.66055,-4.84701 z" /><path
         id="rect2698"
         style="fill:none;fill-opacity:1;stroke:#000000;stroke-width:1.9;stroke-linecap:round;stroke-linejoin:round;stroke-dasharray:none;stroke-opacity:1"
         d="m 138.7602,113.09164 v 0.003 c -2.49936,0.25312 -4.90445,1.04825 -7.07776,3.17606 l 1.0595,1.74996 c 2.51342,-0.83657 3.8297,-0.77165 6.01826,-0.002 v 0.002 h 0.006 11.98206 v -4.92843 h -11.98209 z"
         sodipodi:nodetypes="ccccccccccc" /><rect
         style="fill:none;fill-opacity:1;stroke:#000000;stroke-width:1.88571;stroke-linecap:round;stroke-linejoin:miter;stroke-dasharray:none;stroke-opacity:1"
         id="rect2708"
         width="5.1078429"
         height="4.6592207"
         x="140.77655"
         y="117.99822"
         ry="0"
         rx="0" /></g></g></svg>
