<?xml version="1.0" encoding="UTF-8" standalone="no"?>
<!-- Created with Inkscape (http://www.inkscape.org/) -->

<svg
   width="16"
   height="16"
   viewBox="0 0 4.2333334 4.2333334"
   version="1.1"
   id="svg5"
   xml:space="preserve"
   inkscape:version="1.2.2 (b0a8486541, 2022-12-01)"
   sodipodi:docname="icon-min-joystick-new.svg"
   xmlns:inkscape="http://www.inkscape.org/namespaces/inkscape"
   xmlns:sodipodi="http://sodipodi.sourceforge.net/DTD/sodipodi-0.dtd"
   xmlns="http://www.w3.org/2000/svg"
   xmlns:svg="http://www.w3.org/2000/svg"><sodipodi:namedview
     id="namedview7"
     pagecolor="#ffffff"
     bordercolor="#000000"
     borderopacity="0.25"
     inkscape:showpageshadow="2"
     inkscape:pageopacity="0.0"
     inkscape:pagecheckerboard="0"
     inkscape:deskcolor="#d1d1d1"
     inkscape:document-units="mm"
     showgrid="false"
     inkscape:zoom="23.656721"
     inkscape:cx="25.045736"
     inkscape:cy="15.407883"
     inkscape:window-width="2560"
     inkscape:window-height="992"
     inkscape:window-x="1680"
     inkscape:window-y="0"
     inkscape:window-maximized="1"
     inkscape:current-layer="layer1"
     showguides="false" /><defs
     id="defs2" /><g
     inkscape:label="Camada 1"
     inkscape:groupmode="layer"
     id="layer1"><path
       id="path565"
       style="fill:#000000;stroke-width:0.0579818;stroke-linecap:round;stroke-linejoin:round"
       d="m 1.007981,0.87930904 -0.0410151,0.0110972 C 0.81486668,0.93154245 0.68910481,1.0472994 0.59673269,1.2311918 0.53402149,1.3560374 0.52752145,1.3772873 0.35640653,2.0158494 0.26785205,2.3463198 0.19103042,2.6384102 0.18571965,2.6649534 c -0.0489661,0.2443792 -0.006157,0.4470297 0.11888873,0.5628001 0.0802802,0.074325 0.18732144,0.1168054 0.31247495,0.1240253 0.0318529,0.00186 0.0709279,0.00275 0.0868531,0.00196 C 0.9123438,3.3439492 1.0730726,3.2466001 1.2432098,3.0270668 1.2616577,3.0032633 1.3166788,2.9261801 1.3654706,2.8557528 1.473751,2.6994647 1.5230201,2.635495 1.581172,2.5756689 1.6571957,2.4974588 1.7308338,2.4501253 1.8190671,2.4228626 l 0.043172,-0.013332 0.2316212,-0.00172 c 0.2539738,-0.00189 0.2810191,-2.2e-5 0.3493336,0.023921 0.076116,0.026675 0.1396796,0.069445 0.2105255,0.1416703 0.057047,0.058159 0.1027637,0.1173323 0.2117801,0.274244 0.049523,0.071282 0.1049882,0.1491306 0.1232805,0.1729609 0.1531686,0.1995425 0.2981546,0.29933 0.4757116,0.3274146 0.048608,0.00769 0.1659546,0.00638 0.2160152,-0.00244 C 3.8805438,3.3104294 4.0064581,3.1964367 4.054426,3.0070308 4.066981,2.9574568 4.06769,2.9487678 4.067326,2.8507738 4.0669909,2.7592735 4.0654335,2.7393015 4.0541883,2.6818497 4.0395113,2.6067986 3.735145,1.4657898 3.7123832,1.4005024 3.7040542,1.3766126 3.6853227,1.3299281 3.6707801,1.2967491 3.5710177,1.0691119 3.4387155,0.93553601 3.2678448,0.88993207 L 3.2280057,0.87930592 H 2.1180142 Z M 2.120406,1.0627004 H 3.19907 l 0.038623,0.013567 c 0.050843,0.017879 0.091054,0.04459 0.1319069,0.087598 0.040415,0.042546 0.064819,0.077809 0.099283,0.1434744 0.054799,0.1044131 0.067181,0.1448205 0.2252296,0.7350552 0.08245,0.3079073 0.1560913,0.5850138 0.163629,0.6158137 0.019708,0.080523 0.025761,0.1381771 0.023175,0.2203284 -0.00193,0.061273 -0.00409,0.076554 -0.01545,0.1097915 -0.015582,0.045589 -0.026482,0.064417 -0.055014,0.095088 -0.042871,0.046088 -0.1012208,0.071221 -0.1886848,0.081285 C 3.4574726,3.1835973 3.3283346,3.1281159 3.2002062,2.9835049 3.1512271,2.928224 3.1156883,2.880575 3.0182266,2.7397676 2.9750508,2.6773902 2.9265826,2.6089803 2.9105522,2.5877452 2.7351376,2.3553788 2.5736529,2.2477616 2.3637111,2.2233545 c -0.032489,-0.00381 -0.1219953,-0.0049 -0.2771455,-0.00353 -0.2086967,0.00186 -0.2330419,0.00293 -0.272597,0.011882 -0.1326561,0.030033 -0.2349978,0.0864 -0.3395308,0.1869971 -0.084073,0.08091 -0.1287977,0.1371405 -0.2611866,0.328319 C 1.1136866,2.8907995 1.0719839,2.9458558 1.022449,2.9991515 0.94687964,3.0804547 0.86390967,3.1340933 0.78118167,3.1550556 h -3.924e-5 c -0.0452915,0.011479 -0.12962255,0.015771 -0.17852909,0.0091 C 0.46503036,3.145358 0.38613581,3.0746382 0.36087559,2.9474697 c -0.0104418,-0.052581 -0.006963,-0.1735243 0.00694,-0.2414633 0.0140382,-0.0686 0.32199767,-1.2147487 0.33807994,-1.2582518 0.0802945,-0.2171962 0.1776605,-0.3365651 0.30690707,-0.3761936 0.027749,-0.00849 0.074,-0.00886 1.107602,-0.00886 z M 2.962469,1.3686271 A 0.11442103,0.11442103 0 0 0 2.8480112,1.4830457 0.11442103,0.11442103 0 0 0 2.962469,1.5974642 0.11442103,0.11442103 0 0 0 3.0768876,1.4830457 0.11442103,0.11442103 0 0 0 2.962469,1.3686271 Z M 1.1694532,1.3910554 V 1.6277741 H 0.93269517 V 1.8650812 H 1.1694532 v 0.236758 H 1.4067209 V 1.8650815 H 1.6434788 V 1.6277745 H 1.4067209 V 1.3910558 Z m 1.549396,0.2183682 A 0.11442103,0.11442103 0 0 0 2.6044305,1.7238422 0.11442103,0.11442103 0 0 0 2.7188492,1.8382612 0.11442103,0.11442103 0 0 0 2.8332677,1.7238422 0.11442103,0.11442103 0 0 0 2.7188492,1.6094236 Z m 0.4830441,0 A 0.11442103,0.11442103 0 0 0 3.0874748,1.7238422 0.11442103,0.11442103 0 0 0 3.2018933,1.8382612 0.11442103,0.11442103 0 0 0 3.3163119,1.7238422 0.11442103,0.11442103 0 0 0 3.2018933,1.6094236 Z M 2.962469,1.8459463 A 0.11442103,0.11442103 0 0 0 2.8480112,1.9603648 0.11442103,0.11442103 0 0 0 2.962469,2.0747835 0.11442103,0.11442103 0 0 0 3.0768876,1.9603648 0.11442103,0.11442103 0 0 0 2.962469,1.8459463 Z" /></g></svg>
