<?xml version="1.0" encoding="UTF-8" standalone="no"?>
<!-- Created with Inkscape (http://www.inkscape.org/) -->

<svg
   width="56mm"
   height="56mm"
   viewBox="0 0 56 56"
   version="1.1"
   id="svg5"
   xml:space="preserve"
   inkscape:version="1.2.2 (b0a8486541, 2022-12-01)"
   sodipodi:docname="icon-min-settings.svg"
   xmlns:inkscape="http://www.inkscape.org/namespaces/inkscape"
   xmlns:sodipodi="http://sodipodi.sourceforge.net/DTD/sodipodi-0.dtd"
   xmlns="http://www.w3.org/2000/svg"
   xmlns:svg="http://www.w3.org/2000/svg"><sodipodi:namedview
     id="namedview7"
     pagecolor="#ffffff"
     bordercolor="#000000"
     borderopacity="0.25"
     inkscape:showpageshadow="2"
     inkscape:pageopacity="0.0"
     inkscape:pagecheckerboard="0"
     inkscape:deskcolor="#d1d1d1"
     inkscape:document-units="mm"
     showgrid="false"
     inkscape:zoom="0.52274463"
     inkscape:cx="-316.59818"
     inkscape:cy="496.4183"
     inkscape:window-width="1280"
     inkscape:window-height="992"
     inkscape:window-x="1680"
     inkscape:window-y="0"
     inkscape:window-maximized="0"
     inkscape:current-layer="layer1"
     showguides="false" /><defs
     id="defs2" /><g
     inkscape:label="Camada 1"
     inkscape:groupmode="layer"
     id="layer1"><g
       id="g2280"
       transform="translate(-31.743269,-94.168217)"><rect
         style="fill:none;stroke:#000000;stroke-width:1.9;stroke-linecap:round;stroke-linejoin:round;stroke-dasharray:none;stroke-opacity:1"
         id="rect1292"
         width="44.395863"
         height="34.083473"
         x="37.545338"
         y="105.12648"
         rx="1.4883039"
         ry="1.4883039" /><circle
         style="fill:none;stroke:#000000;stroke-width:1.11888;stroke-linecap:round;stroke-linejoin:round;stroke-dasharray:none;stroke-opacity:1"
         id="path670"
         cx="49.708645"
         cy="113.83236"
         r="3.3292599" /><circle
         style="fill:none;stroke:#000000;stroke-width:1.11888;stroke-linecap:round;stroke-linejoin:round;stroke-dasharray:none;stroke-opacity:1"
         id="circle1228"
         cx="69.777901"
         cy="130.50407"
         r="3.3292599" /><path
         id="rect1986"
         style="fill:#000000;stroke-width:0.891383;stroke-linecap:round;stroke-linejoin:round"
         d="m 44.689779,128.99058 c -0.894557,0 -1.614889,0.72033 -1.614889,1.61488 0,0.89456 0.720332,1.61489 1.614889,1.61489 h 22.237402 a 3.3292599,3.3292599 0 0 1 -0.478524,-1.71617 3.3292599,3.3292599 0 0 1 0.365869,-1.5136 z m 28.053068,0 a 3.3292599,3.3292599 0 0 1 0.364319,1.5136 3.3292599,3.3292599 0 0 1 -0.478524,1.71617 h 2.168343 c 0.894557,0 1.614372,-0.72033 1.614372,-1.61489 0,-0.89455 -0.719815,-1.61488 -1.614372,-1.61488 z" /><circle
         style="fill:none;stroke:#000000;stroke-width:1.11888;stroke-linecap:round;stroke-linejoin:round;stroke-dasharray:none;stroke-opacity:1"
         id="circle1991"
         cx="59.743271"
         cy="122.16822"
         r="3.3292599" /><path
         id="rect1996"
         style="fill:#000000;stroke-width:0.891383;stroke-linecap:round;stroke-linejoin:round"
         d="m 44.689779,120.55337 c -0.894557,0 -1.614889,0.72033 -1.614889,1.61488 0,0.89456 0.720332,1.61489 1.614889,1.61489 H 56.83374 a 3.3292599,3.3292599 0 0 1 -0.419612,-1.61489 3.3292599,3.3292599 0 0 1 0.419612,-1.61488 z m 17.964278,0 a 3.3292599,3.3292599 0 0 1 0.418579,1.61488 3.3292599,3.3292599 0 0 1 -0.419613,1.61489 h 12.143962 c 0.894557,0 1.614372,-0.72033 1.614372,-1.61489 0,-0.89455 -0.719815,-1.61488 -1.614372,-1.61488 z" /><path
         id="rect2002"
         style="fill:#000000;stroke-width:0.891383;stroke-linecap:round;stroke-linejoin:round"
         d="m 44.689779,112.11615 c -0.894557,0 -1.614889,0.72034 -1.614889,1.61489 0,0.89456 0.720332,1.61437 1.614889,1.61437 h 2.055688 a 3.3292599,3.3292599 0 0 1 -0.365869,-1.51308 3.3292599,3.3292599 0 0 1 0.478524,-1.71618 z m 7.871354,0 a 3.3292599,3.3292599 0 0 1 0.476973,1.71618 3.3292599,3.3292599 0 0 1 -0.366386,1.51308 h 22.125265 c 0.894557,0 1.614372,-0.71981 1.614372,-1.61437 0,-0.89455 -0.719815,-1.61489 -1.614372,-1.61489 z" /></g></g></svg>
