<?xml version="1.0" encoding="UTF-8" standalone="no"?>
<!-- Created with Inkscape (http://www.inkscape.org/) -->

<svg
   width="56mm"
   height="56mm"
   viewBox="0 0 56 56"
   version="1.1"
   id="svg5"
   xml:space="preserve"
   inkscape:version="1.2.2 (b0a8486541, 2022-12-01)"
   sodipodi:docname="icon-min-internet.svg"
   xmlns:inkscape="http://www.inkscape.org/namespaces/inkscape"
   xmlns:sodipodi="http://sodipodi.sourceforge.net/DTD/sodipodi-0.dtd"
   xmlns="http://www.w3.org/2000/svg"
   xmlns:svg="http://www.w3.org/2000/svg"><sodipodi:namedview
     id="namedview7"
     pagecolor="#ffffff"
     bordercolor="#000000"
     borderopacity="0.25"
     inkscape:showpageshadow="2"
     inkscape:pageopacity="0.0"
     inkscape:pagecheckerboard="0"
     inkscape:deskcolor="#d1d1d1"
     inkscape:document-units="mm"
     showgrid="false"
     inkscape:zoom="1.4785451"
     inkscape:cx="-11.159619"
     inkscape:cy="155.8965"
     inkscape:window-width="2560"
     inkscape:window-height="992"
     inkscape:window-x="1680"
     inkscape:window-y="0"
     inkscape:window-maximized="1"
     inkscape:current-layer="layer1"
     showguides="false" /><defs
     id="defs2" /><g
     inkscape:label="Camada 1"
     inkscape:groupmode="layer"
     id="layer1"><circle
       style="fill:none;fill-opacity:1;stroke:#dedede;stroke-width:1.66902;stroke-linecap:round;stroke-linejoin:round;stroke-dasharray:none;stroke-opacity:1"
       id="circle1820"
       cx="28.000086"
       cy="27.999844"
       r="16.854527" /><path
       id="ellipse1822"
       style="fill:none;fill-opacity:1;stroke:#dedede;stroke-width:1.75134;stroke-linecap:round;stroke-linejoin:round;stroke-dasharray:none;stroke-opacity:1"
       d="m 28.00004,9.260443 a 9.369803,18.739607 0 0 0 -7.69863,8.061548 2.4977115,2.4977115 0 0 1 1.86029,2.414625 2.4977115,2.4977115 0 0 1 -2.49788,2.497428 2.4977115,2.4977115 0 0 1 -0.5661,-0.07329 9.369803,18.739607 0 0 0 -0.46745,5.839256 9.369803,18.739607 0 0 0 9.36977,18.739546 9.369803,18.739607 0 0 0 7.61493,-7.828506 2.4977115,2.4977115 0 0 1 -1.97568,-2.441316 2.4977115,2.4977115 0 0 1 2.49788,-2.497883 2.4977115,2.4977115 0 0 1 0.72312,0.107243 9.369803,18.739607 0 0 0 0.50953,-6.079084 9.369803,18.739607 0 0 0 -9.36978,-18.739547 z" /><path
       id="ellipse1824"
       style="fill:none;fill-opacity:1;stroke:#dedede;stroke-width:1.75134;stroke-linecap:round;stroke-linejoin:round;stroke-dasharray:none;stroke-opacity:1"
       d="m 28.00004,18.630216 a 18.739607,9.369803 0 0 0 -5.91708,0.484193 2.4977115,2.4977115 0 0 1 0.0787,0.622207 2.4977115,2.4977115 0 0 1 -2.49788,2.497428 2.4977115,2.4977115 0 0 1 -2.42457,-1.903732 18.739607,9.369803 0 0 0 -7.97875,7.669677 18.739607,9.369803 0 0 0 18.73955,9.369773 18.739607,9.369803 0 0 0 5.68223,-0.447082 2.4977115,2.4977115 0 0 1 -0.043,-0.452966 2.4977115,2.4977115 0 0 1 2.49789,-2.497884 2.4977115,2.4977115 0 0 1 2.39018,1.774309 18.739607,9.369803 0 0 0 8.21224,-7.74615 18.739607,9.369803 0 0 0 -18.73954,-9.369773 z" /><circle
       style="fill:none;fill-opacity:1;stroke:#dedede;stroke-width:1.698;stroke-linecap:round;stroke-linejoin:round;stroke-dasharray:none;stroke-opacity:1"
       id="circle1826"
       cx="36.137005"
       cy="36.469719"
       r="2.4977114" /><circle
       style="fill:none;fill-opacity:1;stroke:#dedede;stroke-width:1.698;stroke-linecap:round;stroke-linejoin:round;stroke-dasharray:none;stroke-opacity:1"
       id="circle1828"
       cx="19.663858"
       cy="19.736557"
       r="2.4977114" /></g></svg>
