<?xml version="1.0" encoding="UTF-8" standalone="no"?>
<!-- Created with Inkscape (http://www.inkscape.org/) -->

<svg
   width="56mm"
   height="56mm"
   viewBox="0 0 56 56"
   version="1.1"
   id="svg5"
   xml:space="preserve"
   inkscape:version="1.2.2 (b0a8486541, 2022-12-01)"
   sodipodi:docname="icon-min-system.svg"
   xmlns:inkscape="http://www.inkscape.org/namespaces/inkscape"
   xmlns:sodipodi="http://sodipodi.sourceforge.net/DTD/sodipodi-0.dtd"
   xmlns="http://www.w3.org/2000/svg"
   xmlns:svg="http://www.w3.org/2000/svg"><sodipodi:namedview
     id="namedview7"
     pagecolor="#ffffff"
     bordercolor="#000000"
     borderopacity="0.25"
     inkscape:showpageshadow="2"
     inkscape:pageopacity="0.0"
     inkscape:pagecheckerboard="0"
     inkscape:deskcolor="#d1d1d1"
     inkscape:document-units="mm"
     showgrid="false"
     inkscape:zoom="2.0909785"
     inkscape:cx="119.80037"
     inkscape:cy="122.19159"
     inkscape:window-width="2560"
     inkscape:window-height="992"
     inkscape:window-x="1680"
     inkscape:window-y="0"
     inkscape:window-maximized="1"
     inkscape:current-layer="g2445"
     showguides="false" /><defs
     id="defs2" /><g
     inkscape:label="Camada 1"
     inkscape:groupmode="layer"
     id="layer1"><g
       id="g2445"
       transform="translate(-100.89217,-103.9366)"><circle
         style="fill:#dedede;fill-opacity:1;stroke:none;stroke-width:1.4286;stroke-linecap:round;stroke-linejoin:round;stroke-dasharray:none;stroke-opacity:1"
         id="path2175"
         cx="128.89221"
         cy="131.98706"
         r="3.4074001" /><rect
         style="fill:#dedede;fill-opacity:1;stroke:none;stroke-width:1.52261;stroke-linecap:round;stroke-linejoin:round;stroke-dasharray:none;stroke-opacity:1"
         id="rect2179"
         width="12.832577"
         height="2.1045973"
         x="131.15852"
         y="130.92435"
         rx="0.92806786"
         ry="1.0522987"
         inkscape:transform-center-x="-8.682656" /><rect
         style="fill:#dedede;fill-opacity:1;stroke:none;stroke-width:1.52261;stroke-linecap:round;stroke-linejoin:round;stroke-dasharray:none;stroke-opacity:1"
         id="rect2181"
         width="12.832577"
         height="2.1045973"
         x="-176.47484"
         y="44.58326"
         rx="0.92806786"
         ry="1.0522987"
         inkscape:transform-center-x="4.3413241"
         transform="rotate(-120)"
         inkscape:transform-center-y="-7.5193981" /><rect
         style="fill:#dedede;fill-opacity:1;stroke:none;stroke-width:1.52261;stroke-linecap:round;stroke-linejoin:round;stroke-dasharray:none;stroke-opacity:1"
         id="rect2183"
         width="12.832577"
         height="2.1045973"
         x="52.11541"
         y="-178.66449"
         rx="0.92806786"
         ry="1.0522987"
         inkscape:transform-center-x="4.3413235"
         transform="rotate(120)"
         inkscape:transform-center-y="7.5193929" /><circle
         style="fill:none;fill-opacity:1;stroke:#dedede;stroke-width:1.9;stroke-linecap:round;stroke-linejoin:round;stroke-dasharray:none;stroke-opacity:1"
         id="path2302"
         cx="128.89214"
         cy="131.93666"
         r="14.405515" /></g><path
       id="path2476"
       style="fill:none;fill-opacity:1;stroke:#dedede;stroke-width:1.9;stroke-linecap:round;stroke-linejoin:round;stroke-dasharray:none;stroke-opacity:1"
       d="m 28,6.555876 a 21.444535,21.444535 0 0 0 -0.9958,0.0413 1.4790671,2.9581342 0 0 0 -0.44649,1.536337 19.920969,19.920969 0 0 0 -2.30115,0.31419 2.9581342,1.4790671 75 0 0 -0.82786,-1.380787 21.444535,21.444535 0 0 0 -1.92908,0.513147 2.9581342,1.4790671 75 0 0 -0.0331,1.6154 19.920969,19.920969 0 0 0 -2.15232,0.8785 2.9581342,1.4790671 60 0 0 -1.16117,-1.10949 21.444535,21.444535 0 0 0 -1.71669,0.98443 2.9581342,1.4790671 60 0 0 0.38137,1.56683 19.920969,19.920969 0 0 0 -1.83762,1.42472 2.9581342,1.4790671 45 0 0 -1.4273,-0.78186 21.444535,21.444535 0 0 0 -1.39475,1.39475 2.9581342,1.4790671 45 0 0 0.78187,1.42833 19.920969,19.920969 0 0 0 -1.42524,1.83762 2.9581342,1.4790671 30 0 0 -1.56476,-0.38396 21.444535,21.444535 0 0 0 -0.9865,1.72031 2.9581342,1.4790671 30 0 0 1.11001,1.15962 19.920969,19.920969 0 0 0 -0.87902,2.15387 2.9581342,1.4790671 15 0 0 -0.74466,-0.0672 2.9581342,1.4790671 15 0 0 -0.86816,0.092 21.444535,21.444535 0 0 0 -0.51366,1.92804 2.9581342,1.4790671 15 0 0 1.38027,0.83354 19.920969,19.920969 0 0 0 -0.31522,2.30271 2.9581342,1.4790671 0 0 0 -1.53583,0.44648 21.444535,21.444535 0 0 0 -0.0413,0.99529 21.444535,21.444535 0 0 0 0.0413,0.9958 2.9581342,1.4790671 0 0 0 1.53583,0.44597 19.920969,19.920969 0 0 0 0.31522,2.3027 1.4790671,2.9581342 75 0 0 -1.38027,0.83354 21.444535,21.444535 0 0 0 0.51159,1.92185 1.4790671,2.9581342 75 0 0 1.61592,0.0331 19.920969,19.920969 0 0 0 0.87799,2.15181 1.4790671,2.9581342 60 0 0 -1.11001,1.16014 21.444535,21.444535 0 0 0 0.98702,1.72082 1.4790671,2.9581342 60 0 0 1.56631,-0.38137 19.920969,19.920969 0 0 0 1.42317,1.834 1.4790671,2.9581342 45 0 0 -0.78187,1.42833 21.444535,21.444535 0 0 0 1.39733,1.39682 1.4790671,2.9581342 45 0 0 1.42731,-0.78187 19.920969,19.920969 0 0 0 1.83503,1.42265 1.4790671,2.9581342 30 0 0 -0.38137,1.56683 21.444535,21.444535 0 0 0 1.71927,0.98547 1.4790671,2.9581342 30 0 0 1.15962,-1.11001 19.920969,19.920969 0 0 0 2.15129,0.87799 1.4790671,2.9581342 15 0 0 0.0331,1.6154 21.444535,21.444535 0 0 0 1.92443,0.51211 1.4790671,2.9581342 15 0 0 0.83354,-1.37976 19.920969,19.920969 0 0 0 2.30064,0.31471 1.4790671,2.9581342 0 0 0 0.44648,1.53583 21.444535,21.444535 0 0 0 0.99529,0.0413 21.444535,21.444535 0 0 0 0.99581,-0.0413 1.4790671,2.9581342 0 0 0 0.44596,-1.53583 19.920969,19.920969 0 0 0 2.30271,-0.31522 2.9581342,1.4790671 75 0 0 0.83405,1.37976 21.444535,21.444535 0 0 0 1.92185,-0.5116 2.9581342,1.4790671 75 0 0 0.0326,-1.6154 19.920969,19.920969 0 0 0 2.14974,-0.87695 2.9581342,1.4790671 60 0 0 1.15445,1.11259 21.444535,21.444535 0 0 0 1.72599,-0.98909 2.9581342,1.4790671 60 0 0 -0.38137,-1.56683 19.920969,19.920969 0 0 0 1.83658,-1.4242 2.9581342,1.4790671 45 0 0 1.42833,0.78187 21.444535,21.444535 0 0 0 1.39682,-1.39682 2.9581342,1.4790671 45 0 0 -0.78238,-1.42782 19.920969,19.920969 0 0 0 1.42213,-1.83296 2.9581342,1.4790671 30 0 0 1.56632,0.38137 21.444535,21.444535 0 0 0 0.99063,-1.72858 2.9581342,1.4790671 30 0 0 -1.11259,-1.15445 19.920969,19.920969 0 0 0 0.87643,-2.14974 2.9581342,1.4790671 15 0 0 1.61644,-0.0331 21.444535,21.444535 0 0 0 0.51108,-1.92133 2.9581342,1.4790671 15 0 0 -1.37976,-0.83406 19.920969,19.920969 0 0 0 0.31471,-2.3027 2.9581342,1.4790671 0 0 0 1.53634,-0.44597 21.444535,21.444535 0 0 0 0.0413,-0.9958 21.444535,21.444535 0 0 0 -0.0413,-0.99477 2.9581342,1.4790671 0 0 0 -1.53531,-0.44649 19.920969,19.920969 0 0 0 -0.30437,-2.30838 1.4790671,2.9581342 75 0 0 1.36839,-0.82889 21.444535,21.444535 0 0 0 -0.51315,-1.92753 1.4790671,2.9581342 75 0 0 -0.86868,-0.092 1.4790671,2.9581342 75 0 0 -0.7307,0.0651 19.920969,19.920969 0 0 0 -0.89297,-2.1518 1.4790671,2.9581342 60 0 0 1.11053,-1.16014 21.444535,21.444535 0 0 0 -0.98651,-1.71979 1.4790671,2.9581342 60 0 0 -1.56424,0.38344 19.920969,19.920969 0 0 0 -1.41697,-1.84588 1.4790671,2.9581342 45 0 0 0.77515,-1.41749 21.444535,21.444535 0 0 0 -1.39682,-1.39681 1.4790671,2.9581342 45 0 0 -1.418,0.77411 19.920969,19.920969 0 0 0 -1.84692,-1.418 1.4790671,2.9581342 30 0 0 0.38138,-1.5658 21.444535,21.444535 0 0 0 -1.71566,-0.98391 1.4790671,2.9581342 30 0 0 -1.1622,1.10949 19.920969,19.920969 0 0 0 -2.15129,-0.89297 1.4790671,2.9581342 15 0 0 -0.0346,-1.60197 21.444535,21.444535 0 0 0 -1.92856,-0.512627 1.4790671,2.9581342 15 0 0 -0.82269,1.369427 19.920969,19.920969 0 0 0 -2.30477,-0.30386 1.4790671,2.9581342 0 0 0 -0.44597,-1.535307 21.444535,21.444535 0 0 0 -0.99787,-0.0413 z" /></g></svg>
