<?xml version="1.0" encoding="UTF-8" standalone="no"?>
<!-- Created with Inkscape (http://www.inkscape.org/) -->

<svg
   width="56mm"
   height="56mm"
   viewBox="0 0 56 56"
   version="1.1"
   id="svg5"
   xml:space="preserve"
   inkscape:version="1.2.2 (b0a8486541, 2022-12-01)"
   sodipodi:docname="icon-min-graphic.svg"
   xmlns:inkscape="http://www.inkscape.org/namespaces/inkscape"
   xmlns:sodipodi="http://sodipodi.sourceforge.net/DTD/sodipodi-0.dtd"
   xmlns="http://www.w3.org/2000/svg"
   xmlns:svg="http://www.w3.org/2000/svg"><sodipodi:namedview
     id="namedview7"
     pagecolor="#ffffff"
     bordercolor="#000000"
     borderopacity="0.25"
     inkscape:showpageshadow="2"
     inkscape:pageopacity="0.0"
     inkscape:pagecheckerboard="0"
     inkscape:deskcolor="#d1d1d1"
     inkscape:document-units="mm"
     showgrid="false"
     inkscape:zoom="2.0909785"
     inkscape:cx="50.933091"
     inkscape:cy="161.88593"
     inkscape:window-width="2560"
     inkscape:window-height="992"
     inkscape:window-x="1680"
     inkscape:window-y="0"
     inkscape:window-maximized="1"
     inkscape:current-layer="layer1"
     showguides="false" /><defs
     id="defs2" /><g
     inkscape:label="Camada 1"
     inkscape:groupmode="layer"
     id="layer1"><path
       id="path1478"
       style="fill:none;stroke:#dedede;stroke-width:2.28146;stroke-linecap:round;stroke-linejoin:round;stroke-dasharray:none;stroke-opacity:1"
       d="M 26.16118,8.907368 C 15.61641,8.907242 7.06813,17.455518 7.06826,28.000283 c 2e-4,10.544546 8.54838,19.092468 19.09292,19.09235 9.28087,0 -1.15775,-6.291284 5.66734,-10.231745 1.50749,-0.870358 3.3309,-0.771157 5.14151,-0.588907 l -3.63655,-3.636554 c 1.27386,-0.688765 2.44615,-1.861041 3.1349,-3.134894 l 6.31165,6.311641 c 1.49135,-0.960125 2.47349,-3.140078 2.47349,-7.811891 C 44.90637,17.461469 36.70572,8.907571 26.16118,8.907368 Z" /><circle
       style="fill:#dedede;fill-opacity:1;stroke:none;stroke-width:0.434431;stroke-linecap:round;stroke-linejoin:round;stroke-dasharray:none;stroke-opacity:1"
       id="path1485"
       cx="-32.263424"
       cy="30.225584"
       r="3.1903467"
       inkscape:transform-center-x="5.6662921"
       inkscape:transform-center-y="10.827889"
       transform="rotate(-75)" /><circle
       style="fill:#dedede;fill-opacity:1;stroke:none;stroke-width:0.434431;stroke-linecap:round;stroke-linejoin:round;stroke-dasharray:none;stroke-opacity:1"
       id="circle1487"
       cx="-25.858137"
       cy="21.547834"
       r="3.1903467"
       inkscape:transform-center-x="12.390546"
       inkscape:transform-center-y="2.3948933"
       transform="rotate(-75)" /><circle
       style="fill:#dedede;fill-opacity:1;stroke:none;stroke-width:0.434431;stroke-linecap:round;stroke-linejoin:round;stroke-dasharray:none;stroke-opacity:1"
       id="circle1489"
       cx="-15.113942"
       cy="21.63339"
       r="3.1903467"
       inkscape:transform-center-x="9.5270994"
       inkscape:transform-center-y="-7.9610556"
       transform="rotate(-75)" /><circle
       style="fill:#dedede;fill-opacity:1;stroke:none;stroke-width:0.434431;stroke-linecap:round;stroke-linejoin:round;stroke-dasharray:none;stroke-opacity:1"
       id="circle1491"
       cx="-8.7195959"
       cy="30.271177"
       r="3.1903467"
       inkscape:transform-center-x="-0.47133285"
       inkscape:transform-center-y="-11.901905"
       transform="rotate(-75)" /><path
       id="path1668"
       style="fill:none;fill-opacity:1;stroke:#dedede;stroke-width:2.34876;stroke-linecap:round;stroke-linejoin:round;stroke-dasharray:none;stroke-opacity:1"
       d="M 33.33368,32.635376 45.12211,44.4238 c 0.86827,0.868267 2.26583,0.868267 3.13411,-9e-6 0.86826,-0.868258 0.8689,-2.266467 6.4e-4,-3.134742 L 36.46843,29.500625 c -0.68876,1.273854 -1.86088,2.445995 -3.13475,3.134751 z" /><path
       id="path1688"
       style="fill:none;fill-opacity:1;stroke:#dedede;stroke-width:2.34876;stroke-linecap:round;stroke-linejoin:round;stroke-dasharray:none;stroke-opacity:1"
       inkscape:transform-center-y="0.037263427"
       d="m 26.68291,22.850481 c 0,0 0.15491,9.549614 3.73399,10.348277 3.04346,0.679155 7.29417,-3.571502 6.61492,-6.614917 C 36.233,23.00466 26.68291,22.850481 26.68291,22.850481 Z"
       sodipodi:nodetypes="caac"
       inkscape:transform-center-x="-0.03699913" /></g></svg>
