<?xml version="1.0" encoding="UTF-8" standalone="no"?>
<!-- Created with Inkscape (http://www.inkscape.org/) -->

<svg
   width="56mm"
   height="56mm"
   viewBox="0 0 56 56"
   version="1.1"
   id="svg5"
   xml:space="preserve"
   inkscape:version="1.2.2 (b0a8486541, 2022-12-01)"
   sodipodi:docname="icon-min-office.svg"
   xmlns:inkscape="http://www.inkscape.org/namespaces/inkscape"
   xmlns:sodipodi="http://sodipodi.sourceforge.net/DTD/sodipodi-0.dtd"
   xmlns="http://www.w3.org/2000/svg"
   xmlns:svg="http://www.w3.org/2000/svg"><sodipodi:namedview
     id="namedview7"
     pagecolor="#ffffff"
     bordercolor="#000000"
     borderopacity="0.25"
     inkscape:showpageshadow="2"
     inkscape:pageopacity="0.0"
     inkscape:pagecheckerboard="0"
     inkscape:deskcolor="#d1d1d1"
     inkscape:document-units="mm"
     showgrid="false"
     inkscape:zoom="2.9570902"
     inkscape:cx="52.247308"
     inkscape:cy="97.900295"
     inkscape:window-width="2560"
     inkscape:window-height="992"
     inkscape:window-x="1680"
     inkscape:window-y="0"
     inkscape:window-maximized="1"
     inkscape:current-layer="layer1"
     showguides="false" /><defs
     id="defs2" /><g
     inkscape:label="Camada 1"
     inkscape:groupmode="layer"
     id="layer1"><path
       id="rect1916"
       style="fill:#dedede;fill-opacity:1;stroke:none;stroke-width:1.89183;stroke-linecap:round;stroke-linejoin:round;stroke-dasharray:none;stroke-opacity:1"
       d="M 10.230383 13.139766 C 9.2963142 13.139766 8.5446981 13.891403 8.5446981 14.825452 L 8.5446981 45.86335 C 8.5446981 46.797419 9.2963142 47.549552 10.230383 47.549552 L 41.268282 47.549552 C 42.202341 47.549552 42.954484 46.797419 42.954484 45.86335 L 42.954484 24.948865 L 42.949833 24.948865 A 0.8857066 0.8857066 0 0 0 42.950867 24.923027 A 0.8857066 0.8857066 0 0 0 42.065133 24.037292 A 0.8857066 0.8857066 0 0 0 41.179399 24.923027 A 0.8857066 0.8857066 0 0 0 41.180432 24.948865 L 41.173197 24.948865 L 41.173197 45.225146 C 41.173197 45.526086 40.931028 45.768266 40.630078 45.768266 L 10.869104 45.768266 C 10.568154 45.768266 10.325468 45.526086 10.325468 45.225146 L 10.325468 15.463656 C 10.325468 15.162716 10.568154 14.921053 10.869104 14.921053 L 30.897856 14.921053 L 30.897856 14.917436 A 0.88954133 0.88954133 0 0 0 30.926794 14.918469 A 0.88954133 0.88954133 0 0 0 31.816146 14.029118 A 0.88954133 0.88954133 0 0 0 30.926794 13.139766 A 0.88954133 0.88954133 0 0 0 30.897856 13.1408 L 30.897856 13.139766 L 10.230383 13.139766 z " /><rect
       style="fill:none;fill-opacity:1;stroke:#dedede;stroke-width:1.93717;stroke-linecap:round;stroke-linejoin:round;stroke-dasharray:none;stroke-opacity:1"
       id="rect1920"
       width="9.0196581"
       height="27.882547"
       x="35.025074"
       y="-19.772772"
       rx="0"
       ry="0"
       transform="rotate(45)" /><path
       id="path1922"
       style="fill:none;fill-opacity:1;stroke:#dedede;stroke-width:1.82657;stroke-linecap:round;stroke-linejoin:round;stroke-dasharray:none;stroke-opacity:1"
       d="m 45.210582,10.695586 a 4.5664771,4.5664771 0 0 0 -6.458005,-3.39e-4 4.5664771,4.5664771 0 0 0 -0.472922,0.557848 l 0.468192,-0.468193 6.377788,6.377788 -0.442917,0.442917 a 4.5664771,4.5664771 0 0 0 0.527877,-0.452342 4.5664771,4.5664771 0 0 0 -7e-6,-6.457673 z" /><path
       sodipodi:type="star"
       style="fill:none;fill-opacity:1;stroke:#dedede;stroke-width:2.1;stroke-linecap:round;stroke-linejoin:round;stroke-dasharray:none;stroke-opacity:1"
       id="path1976"
       inkscape:flatsided="true"
       sodipodi:sides="3"
       sodipodi:cx="186.83566"
       sodipodi:cy="151.21123"
       sodipodi:r1="6.2213116"
       sodipodi:r2="3.110656"
       sodipodi:arg1="1.5707963"
       sodipodi:arg2="2.6179939"
       inkscape:rounded="0"
       inkscape:randomized="0"
       d="m 186.83566,157.43254 -5.38781,-9.33197 10.77563,0 z"
       inkscape:transform-center-x="2.3672875e-06"
       inkscape:transform-center-y="1.4305077"
       transform="matrix(0.5999321,0.5999321,-0.5999321,0.5999321,-1.0639056,-167.18385)" /><rect
       style="fill:#dedede;fill-opacity:1;stroke:none;stroke-width:1.81448;stroke-linecap:round;stroke-linejoin:round;stroke-dasharray:none;stroke-opacity:1"
       id="rect2001"
       width="9.996479"
       height="2.042861"
       x="14.723655"
       y="19.052202"
       rx="1.0214305"
       ry="1.0214305" /><rect
       style="fill:#dedede;fill-opacity:1;stroke:none;stroke-width:1.41021;stroke-linecap:round;stroke-linejoin:round;stroke-dasharray:none;stroke-opacity:1"
       id="rect2003"
       width="6.0382347"
       height="2.042861"
       x="14.723655"
       y="23.378527"
       rx="1.0214305"
       ry="1.0214305" /><rect
       style="fill:#dedede;fill-opacity:1;stroke:none;stroke-width:1.81448;stroke-linecap:round;stroke-linejoin:round;stroke-dasharray:none;stroke-opacity:1"
       id="rect2005"
       width="9.996479"
       height="2.042861"
       x="-36.922905"
       y="-41.659626"
       rx="1.0214305"
       ry="1.0214305"
       transform="scale(-1)" /><rect
       style="fill:#dedede;fill-opacity:1;stroke:none;stroke-width:1.41021;stroke-linecap:round;stroke-linejoin:round;stroke-dasharray:none;stroke-opacity:1"
       id="rect2007"
       width="6.0382347"
       height="2.042861"
       x="-36.922905"
       y="-37.333317"
       rx="1.0214305"
       ry="1.0214305"
       transform="scale(-1)" /></g></svg>
